<svg xmlns="http://www.w3.org/2000/svg" width="20" height="20" viewBox="0 0 20 20">
  <g id="XMLID_17_" transform="translate(-67.5 -67.5)">
    <path id="XMLID_22_" d="M87.5,77.5a10,10,0,1,0-11.562,9.879V80.393H73.4V77.5h2.537V75.3a3.528,3.528,0,0,1,3.775-3.89,15.256,15.256,0,0,1,2.241.2v2.46h-1.26a1.443,1.443,0,0,0-1.627,1.562V77.5H81.84L81.4,80.393H79.067v6.986A10,10,0,0,0,87.5,77.5Z" transform="translate(0 0)" fill="#3975ea"/>
    <path id="XMLID_18_" d="M183.095,147.786l.444-2.893h-2.773v-1.874a1.446,1.446,0,0,1,1.627-1.562h1.26V139a15.257,15.257,0,0,0-2.241-.2,3.528,3.528,0,0,0-3.775,3.89v2.2H175.1v2.893h2.537v6.986a9.794,9.794,0,0,0,1.562.121,10.471,10.471,0,0,0,1.562-.121v-6.986Z" transform="translate(-101.704 -67.393)" fill="#fff"/>
  </g>
</svg>
