<svg id="Group_31845" data-name="Group 31845" xmlns="http://www.w3.org/2000/svg" xmlns:xlink="http://www.w3.org/1999/xlink" width="24" height="24" viewBox="0 0 24 24">
  <defs>
    <clipPath id="clip-path">
      <rect id="Rectangle_7425" data-name="Rectangle 7425" width="20.413" height="20.129" fill="#7f849c"/>
    </clipPath>
  </defs>
  <path id="Path_13539" data-name="Path 13539" d="M0,0H24V24H0Z" transform="translate(0 0)" fill="none"/>
  <g id="Group_26011" data-name="Group 26011" transform="translate(1.696 1.84)">
    <g id="Group_26011-2" data-name="Group 26011" clip-path="url(#clip-path)">
      <path id="Path_13552" data-name="Path 13552" d="M8,6.739a3.384,3.384,0,1,1,2.385-.988A3.37,3.37,0,0,1,8,6.739ZM7.96,2.05a1.356,1.356,0,0,0-.926.363,1.343,1.343,0,0,0,0,1.916,1.367,1.367,0,0,0,1.936,0A1.366,1.366,0,0,0,8.328,2.1a1.415,1.415,0,0,0-.368-.05" transform="translate(2.21 -0.001)" fill="#7f849c"/>
      <path id="Path_13553" data-name="Path 13553" d="M3.37,14.727a3.451,3.451,0,0,1-.868-.112,3.35,3.35,0,0,1-.919-6.088l-.044-.084.235-.016a3.189,3.189,0,0,1,1.588-.414A3.392,3.392,0,0,1,6.292,9.7a3.414,3.414,0,0,1,.319,2.583,3.318,3.318,0,0,1-1.558,2,3.371,3.371,0,0,1-1.682.449m-.016-4.72a1.342,1.342,0,0,0-1.307,1.007,1.353,1.353,0,0,0,.114,1.009,1.385,1.385,0,0,0,.849.662,1.356,1.356,0,0,0,.368.052,1.329,1.329,0,0,0,.669-.18,1.363,1.363,0,0,0,.526-1.831,1.37,1.37,0,0,0-.855-.668,1.323,1.323,0,0,0-.363-.05" transform="translate(0 3.821)" fill="#7f849c"/>
      <path id="Path_13554" data-name="Path 13554" d="M12.636,14.727a3.379,3.379,0,0,1-1.669-.443l.012-.089-.056.069a3.363,3.363,0,0,1,1.719-6.253,3.383,3.383,0,0,1,1.687.452,3.426,3.426,0,0,1,1.558,2.072,3.371,3.371,0,0,1-2.4,4.082,3.366,3.366,0,0,1-.849.109m.01-4.737a1.361,1.361,0,0,0-.362.049,1.337,1.337,0,0,0-.824.632,1.361,1.361,0,0,0-.133,1.024,1.266,1.266,0,0,0,.61.843,1.493,1.493,0,0,0,.7.177A1.39,1.39,0,0,0,13.8,12.07,1.364,1.364,0,0,0,13.965,11a1.393,1.393,0,0,0-.585-.8,1.5,1.5,0,0,0-.734-.21" transform="translate(4.419 3.82)" fill="#7f849c"/>
      <path id="Path_13555" data-name="Path 13555" d="M8.972,14.95a8.878,8.878,0,0,1-3.242-.616,8.736,8.736,0,0,1-2.806-1.74A1,1,0,0,1,3.3,10.9a1.022,1.022,0,0,1,.3-.046.988.988,0,0,1,.678.267,6.851,6.851,0,0,0,4.685,1.828h0a6.848,6.848,0,0,0,2.8-.586l.191-.092a1,1,0,0,1,.414-.089,1.053,1.053,0,0,1,.344.059,1.012,1.012,0,0,1,.567.5,1,1,0,0,1-.474,1.332,9.016,9.016,0,0,1-3.833.867" transform="translate(1.241 5.179)" fill="#7f849c"/>
      <path id="Path_13556" data-name="Path 13556" d="M13.55,12.715a1,1,0,0,1-.978-1.214c.047-.236.086-.48.111-.719a6.933,6.933,0,0,0-.764-3.966A7.016,7.016,0,0,0,9.661,4.335,1,1,0,0,1,9.775,2.6a1,1,0,0,1,1,.069,9,9,0,0,1,2.9,3.2,8.565,8.565,0,0,1,1,5.125,7.891,7.891,0,0,1-.146.926,1.007,1.007,0,0,1-.673.741,1.024,1.024,0,0,1-.306.047" transform="translate(4.394 1.193)" fill="#7f849c"/>
      <path id="Path_13557" data-name="Path 13557" d="M1.907,10.665a.99.99,0,0,1-.572-.18A1,1,0,0,1,.91,9.579,8.9,8.9,0,0,1,7.11,1.9a.986.986,0,0,1,.3-.047,1,1,0,0,1,.3,1.951A6.939,6.939,0,0,0,4.381,6.06,6.856,6.856,0,0,0,2.9,9.749a1,1,0,0,1-1,.916" transform="translate(0.432 0.881)" fill="#7f849c"/>
    </g>
  </g>
</svg>
